Coordinates
version=1
nRows=17
nColumns=33
inDegrees=yes

Units are S.I. units (second, meters, Newtons, ...)
Angles are in degrees.

endheader
time	ground_thorax_rot_x	ground_thorax_rot_y	ground_thorax_rot_z	ground_thorax_tx	ground_thorax_ty	ground_thorax_tz	clav_prot_r	clav_elev_r	scapula_abduction_r	scapula_elevation_r	scapula_upward_rot_r	scapula_winging_r	shoulder_elv_r	plane_of_elev_r	axial_rot_r	elbow_flexion_r	pro_sup_r	wrist_flex_r	wrist_dev_r	clav_prot_l	clav_elev_l	scapula_abduction_l	scapula_elevation_l	scapula_upward_rot_l	scapula_winging_l	shoulder_elv_l	plane_of_elev_l	axial_rot_l	elbow_flexion_l	pro_sup_l	wrist_flex_l	wrist_dev_l
      9.08000000	    -40.29448268	     -9.92944027	     10.23621311	   -198.81998273	    828.97816902	     -8.64462111	      9.27994108	    -45.00000000	     32.27164204	    -45.00000000	    -45.00000000	   2422.39857651	    427.30042195	     28.19170647	     91.41286785	   1453.40953546	     38.58150837	     18.00007900	      6.64020932	     15.34985814	     38.57377427	    -34.97937534	    -45.00000000	    -45.00000000	    802.15983128	  -2980.57374164	    142.37988390	    149.89734981	     10.75665256	     42.03800063	      7.12388623	    -21.51477590
      9.09000000	    -40.23326515	    -10.09257837	     10.24928611	   -198.56413690	    829.84202170	     -8.69437684	      9.20412641	    -45.00000000	     32.33449954	    -45.00000000	    -45.00000000	   2422.56995539	    427.59975360	     28.08720598	     91.19032825	   1453.60868546	     38.91783788	     18.14803440	      6.74219069	     15.56765575	     38.79844488	    -34.73801931	    -45.00000000	    -45.00000000	    801.99612238	  -2980.21888731	    142.47811583	    149.84342932	     11.01472226	     42.54296133	      7.02501142	    -21.66496598
      9.10000000	    -40.21158064	     -9.97373218	     10.02507358	   -198.28258323	    830.79303137	     -8.75932424	      9.41349053	    -45.00000000	     32.59332453	    -45.00000000	    -45.00000000	   2422.30324023	    427.41553723	     28.43598355	     90.91122584	   1453.59853012	     39.26794035	     18.02334804	      6.51419891	     15.23566282	     38.42585518	    -34.97448346	    -45.00000000	    -45.00000000	    802.33860004	  -2980.34161175	    142.19457341	    150.02475181	     11.01913879	     43.04921598	      6.86425629	    -21.51590591
      9.11000000	    -40.14113419	    -10.17886020	     10.14994880	   -197.96936926	    831.85089783	     -8.83697246	      9.39249703	    -45.00000000	     32.59108194	    -45.00000000	    -45.00000000	   2422.54222976	    427.83434570	     28.23904431	     90.67994699	   1453.75115529	     39.69447477	     18.22768568	      6.69603295	     15.43382055	     38.84273615	    -34.67562743	    -45.00000000	    -45.00000000	    802.04604225	  -2979.86862799	    142.36951571	    150.05876798	     11.24586610	     43.60131436	      6.84248097	    -21.76755550
      9.12000000	    -40.12636466	    -10.14581367	      9.91707773	   -197.62145811	    833.02450327	     -8.92386276	      9.65327614	    -45.00000000	     33.05105228	    -45.00000000	    -45.00000000	   2422.15421692	    427.54153632	     28.63985163	     90.32941038	   1453.73468992	     40.13016903	     18.02357161	      6.37188472	     14.97328326	     38.22496879	    -34.72363384	    -45.00000000	    -45.00000000	    802.37592541	  -2979.88290619	    141.94086607	    150.36990136	     11.18722390	     44.14741127	      6.61152054	    -21.50257918
      9.13000000	    -40.08909236	    -10.26089373	     10.00136785	   -197.23159027	    834.33536939	     -9.01741756	      9.70991496	    -45.00000000	     32.93776264	    -45.00000000	    -45.00000000	   2422.44416405	    428.01992836	     28.49523997	     90.03102265	   1453.94742529	     40.66016717	     18.30547299	      6.60443972	     15.17566251	     38.77062796	    -34.67477142	    -45.00000000	    -45.00000000	    802.18200174	  -2979.47781467	    142.15727696	    150.40880638	     11.43148472	     44.76389640	      6.67604875	    -21.88041712
      9.14000000	    -40.04606045	    -10.15983671	      9.74566805	   -196.79418530	    835.79186397	     -9.11378560	      9.82002414	    -45.00000000	     33.38621138	    -45.00000000	    -45.00000000	   2422.12100975	    427.80749676	     28.88588987	     89.58952567	   1453.91067037	     41.23111778	     18.06480670	      6.24696496	     14.87957257	     38.15513707	    -34.90580630	    -45.00000000	    -45.00000000	    802.50844012	  -2979.57089109	    141.81881128	    150.73867491	     11.45565574	     45.36154992	      6.36561481	    -21.56111231
      9.15000000	    -40.13630552	    -10.00662000	      9.64715497	   -196.30014230	    837.40676385	     -9.20934084	      9.71669387	    -45.00000000	     33.14080084	    -45.00000000	    -45.00000000	   2422.39146653	    428.23951842	     28.87654011	     89.37324549	   1454.20343740	     42.06740804	     18.27060112	      6.35010440	     15.18785268	     38.54482665	    -35.53632657	    -45.00000000	    -45.00000000	    802.70658133	  -2979.56601743	    142.14970502	    150.80892333	     11.80202137	     46.17206437	      6.32182762	    -21.80889042
      9.16000000	    -40.09581170	    -10.09250638	      9.55351805	   -195.74047944	    839.18254097	     -9.29981207	      9.94662711	    -45.00000000	     33.49026863	    -45.00000000	    -45.00000000	   2422.27523899	    428.37174401	     29.07428457	     88.90863734	   1454.38347083	     42.92588356	     18.32111687	      6.25625797	     14.88725860	     38.46756657	    -35.55118567	    -45.00000000	    -45.00000000	    802.72456462	  -2979.34648641	    142.16273503	    151.14722260	     12.02383950	     46.91388978	      6.14960193	    -21.84279377
      9.17000000	    -40.09711483	    -10.00169078	      9.39778314	   -195.10545752	    841.11761928	     -9.38105387	     10.00269747	    -45.00000000	     33.60282286	    -45.00000000	    -45.00000000	   2422.27380847	    428.59279807	     29.27325073	     88.42790625	   1454.56220274	     43.90873869	     18.34199706	      6.15109993	     14.92958744	     38.45493119	    -35.79863935	    -45.00000000	    -45.00000000	    802.91727170	  -2979.16450946	    142.03946127	    151.37354326	     12.19634620	     47.70240369	      6.02448280	    -21.89903078
      9.18000000	    -40.07336504	     -9.99275127	      9.24831040	   -194.38517498	    843.20465388	     -9.44944049	     10.04800069	    -45.00000000	     33.87999931	    -45.00000000	    -45.00000000	   2422.21776067	    428.77782663	     29.50871072	     87.89079343	   1454.72066256	     44.94297157	     18.35810999	      6.03709443	     14.79700158	     38.31888317	    -35.96266416	    -45.00000000	    -45.00000000	    803.08501087	  -2978.98221946	    141.93509840	    151.63968098	     12.38110243	     48.44445845	      5.87809461	    -21.94309945
      9.19000000	    -40.08790432	     -9.92360989	      9.12320431	   -193.56729284	    845.43972537	     -9.50262139	     10.07375185	    -45.00000000	     33.94038110	    -45.00000000	    -45.00000000	   2422.21953874	    429.04375381	     29.70764277	     87.49006927	   1454.91647655	     46.13206803	     18.36319685	      5.90195488	     14.87788265	     38.43678297	    -36.20922199	    -45.00000000	    -45.00000000	    803.27937819	  -2978.73920377	    141.83433842	    151.88866790	     12.55999196	     49.21621619	      5.73378233	    -21.97896096
      9.20000000	    -40.13562778	     -9.66598993	      8.88587213	   -192.63997701	    847.81442295	     -9.53948134	      9.95236661	    -45.00000000	     33.81598473	    -45.00000000	    -45.00000000	   2422.27422560	    429.33209230	     30.01776623	     87.06645704	   1455.14346171	     47.65165647	     18.34319901	      5.74318188	     15.28051796	     38.58426801	    -36.68225764	    -45.00000000	    -45.00000000	    803.59993508	  -2978.54702588	    141.60061528	    151.95359792	     12.71282091	     50.12750299	      5.62373287	    -22.03902651
      9.21000000	    -40.14261840	     -9.65053333	      8.71410408	   -191.59586497	    850.30771901	     -9.55999254	     10.00488163	    -45.00000000	     34.10238580	    -45.00000000	    -44.90977021	   2422.19815260	    429.58084167	     30.29670790	     86.50695799	   1455.38206076	     49.14813137	     18.33456689	      5.57695499	     15.13654665	     38.49545091	    -36.86558912	    -45.00000000	    -45.00000000	    803.79806797	  -2978.32218940	    141.48875988	    152.29035907	     12.88675804	     50.91985477	      5.46636909	    -22.06933883
      9.22000000	    -40.04512725	     -9.74970992	      8.63395949	   -190.42079587	    852.91627526	     -9.56522459	     10.11910065	    -45.00000000	     34.78380791	    -45.00000000	    -44.27395661	   2422.04123144	    429.77348513	     30.26383373	     86.18195168	   1455.50178783	     50.49278986	     18.36023868	      5.46852758	     14.47857364	     38.21964451	    -36.86495595	    -45.00000000	    -45.00000000	    803.74173111	  -2977.99111038	    141.50301805	    153.01249268	     13.09113937	     51.52712287	      5.24662360	    -22.05512747
      9.23000000	    -40.16476581	     -9.16880920	      8.06976595	   -189.10781455	    855.62363437	     -9.55668748	      9.86305320	    -45.00000000	     34.77531187	    -45.00000000	    -43.23933072	   2422.12221796	    429.96007800	     30.37003029	     86.08983373	   1455.77962566	     52.52266146	     18.35105671	      5.31494208	     15.70745969	     38.70033599	    -37.64251176	    -45.00000000	    -45.00000000	    804.24485373	  -2977.80977151	    141.09453646	    153.01923807	     13.23727217	     52.47192200	      5.15757963	    -22.12011695
      9.24000000	    -40.13798694	     -8.99838426	      7.80006027	   -187.65021397	    858.41658425	     -9.53561732	     10.01101324	    -45.00000000	     35.23912710	    -45.00000000	    -42.37359794	   2421.90500574	    430.17679627	     30.53077245	     85.89448697	   1456.13300977	     54.24977160	     18.32330364	      5.09837025	     15.38388403	     38.64321132	    -37.89010295	    -45.00000000	    -45.00000000	    804.36766254	  -2977.52170909	    140.92703415	    153.65918699	     13.43694059	     53.21555693	      5.02921271	    -22.19058498
